<?xml version="1.0" encoding="UTF-8"?>
<svg xmlns="http://www.w3.org/2000/svg" xmlns:xlink="http://www.w3.org/1999/xlink" width="24px" height="32px" viewBox="0 0 32 46" version="1.1">
<g id="surface1">
<path style=" stroke:none;fill-rule:nonzero;fill:currentColor;fill-opacity:1;" d="M 22.234375 0.40625 C 22.839844 0.984375 23.222656 1.628906 23.59375 2.363281 C 23.703125 2.582031 23.816406 2.796875 23.929688 3.011719 C 23.984375 3.121094 24.042969 3.230469 24.101562 3.34375 C 24.355469 3.832031 24.625 4.3125 24.894531 4.792969 C 25.511719 5.894531 26.101562 7.011719 26.691406 8.128906 C 26.917969 8.5625 27.144531 8.992188 27.378906 9.421875 C 27.453125 9.558594 27.453125 9.558594 27.527344 9.699219 C 27.621094 9.867188 27.710938 10.039062 27.804688 10.207031 C 27.863281 10.316406 27.863281 10.316406 27.925781 10.429688 C 27.960938 10.492188 27.996094 10.558594 28.03125 10.621094 C 28.40625 11.425781 28.285156 12.347656 27.984375 13.152344 C 27.902344 13.328125 27.902344 13.328125 27.796875 13.433594 C 27.589844 13.453125 27.382812 13.464844 27.175781 13.476562 C 27.042969 13.480469 26.910156 13.488281 26.773438 13.496094 C 26.628906 13.5 26.480469 13.507812 26.332031 13.515625 C 26.179688 13.519531 26.027344 13.527344 25.878906 13.535156 C 25.554688 13.546875 25.234375 13.5625 24.914062 13.578125 C 24.589844 13.589844 24.265625 13.605469 23.941406 13.621094 C 22.382812 13.691406 20.820312 13.761719 19.257812 13.785156 C 19.15625 13.789062 19.050781 13.792969 18.945312 13.792969 C 18.484375 13.796875 18.242188 13.792969 17.84375 13.550781 C 17.523438 13.207031 17.511719 12.984375 17.476562 12.527344 C 17.46875 12.410156 17.460938 12.292969 17.449219 12.171875 C 17.433594 11.921875 17.414062 11.675781 17.398438 11.425781 C 17.386719 11.308594 17.378906 11.191406 17.371094 11.070312 C 17.363281 10.960938 17.355469 10.855469 17.347656 10.742188 C 17.34375 10.496094 17.34375 10.496094 17.210938 10.386719 C 16.519531 10.40625 16.179688 10.660156 15.671875 11.097656 C 15.523438 11.222656 15.371094 11.347656 15.21875 11.472656 C 15.101562 11.570312 15.101562 11.570312 14.984375 11.667969 C 14.613281 11.972656 14.226562 12.253906 13.839844 12.542969 C 13.015625 13.15625 12.210938 13.792969 11.410156 14.4375 C 11.054688 14.722656 10.695312 15.003906 10.335938 15.285156 C 10.058594 15.5 10.058594 15.5 9.972656 15.863281 C 10 16.265625 10 16.265625 10.230469 16.433594 C 10.3125 16.488281 10.398438 16.542969 10.484375 16.597656 C 10.582031 16.664062 10.679688 16.726562 10.777344 16.792969 C 10.890625 16.863281 11 16.933594 11.113281 17.007812 C 11.238281 17.085938 11.359375 17.164062 11.480469 17.246094 C 11.972656 17.5625 12.464844 17.878906 12.957031 18.195312 C 13.746094 18.699219 14.535156 19.207031 15.3125 19.734375 C 15.429688 19.8125 15.546875 19.894531 15.667969 19.972656 C 15.882812 20.117188 16.101562 20.265625 16.316406 20.417969 C 16.414062 20.480469 16.511719 20.546875 16.609375 20.613281 C 16.691406 20.671875 16.777344 20.726562 16.859375 20.785156 C 17.167969 20.921875 17.324219 20.886719 17.636719 20.789062 C 17.773438 20.679688 17.773438 20.679688 17.753906 20.4375 C 17.75 20.328125 17.75 20.222656 17.746094 20.113281 C 17.746094 19.996094 17.746094 19.878906 17.742188 19.761719 C 17.738281 19.515625 17.734375 19.269531 17.730469 19.023438 C 17.730469 18.90625 17.730469 18.789062 17.726562 18.667969 C 17.726562 18.507812 17.726562 18.507812 17.722656 18.34375 C 17.746094 18.039062 17.777344 17.882812 17.957031 17.636719 C 18.375 17.316406 18.71875 17.273438 19.242188 17.25 C 19.3125 17.246094 19.386719 17.242188 19.460938 17.238281 C 19.699219 17.222656 19.9375 17.214844 20.175781 17.203125 C 20.34375 17.195312 20.511719 17.1875 20.675781 17.179688 C 21.023438 17.164062 21.367188 17.148438 21.710938 17.132812 C 22.140625 17.117188 22.570312 17.09375 23 17.074219 C 23.324219 17.058594 23.648438 17.042969 23.96875 17.03125 C 24.125 17.023438 24.277344 17.015625 24.429688 17.007812 C 24.644531 16.996094 24.859375 16.988281 25.074219 16.980469 C 25.195312 16.976562 25.316406 16.96875 25.441406 16.964844 C 25.855469 17.015625 26.007812 17.136719 26.300781 17.425781 C 26.496094 17.714844 26.496094 17.714844 26.675781 18.046875 C 26.710938 18.105469 26.746094 18.164062 26.777344 18.226562 C 26.886719 18.425781 26.996094 18.621094 27.101562 18.820312 C 27.179688 18.957031 27.253906 19.09375 27.332031 19.230469 C 27.523438 19.578125 27.714844 19.929688 27.902344 20.277344 C 28.121094 20.671875 28.339844 21.070312 28.554688 21.464844 C 28.667969 21.671875 28.78125 21.875 28.894531 22.082031 C 29.296875 22.808594 29.707031 23.53125 30.121094 24.25 C 30.535156 24.964844 30.949219 25.683594 31.347656 26.410156 C 31.382812 26.476562 31.421875 26.546875 31.464844 26.621094 C 31.910156 27.449219 32.128906 28.246094 31.894531 29.164062 C 31.335938 30.816406 29.921875 31.71875 28.578125 32.742188 C 28.0625 33.140625 27.566406 33.554688 27.074219 33.972656 C 26.648438 34.335938 26.210938 34.683594 25.765625 35.023438 C 25.179688 35.46875 24.613281 35.9375 24.050781 36.414062 C 23.625 36.773438 23.191406 37.125 22.75 37.464844 C 22.347656 37.78125 21.949219 38.105469 21.546875 38.429688 C 21.46875 38.496094 21.390625 38.558594 21.308594 38.625 C 21.152344 38.75 21 38.875 20.84375 39 C 20.292969 39.449219 19.738281 39.890625 19.1875 40.335938 C 18.582031 40.820312 17.976562 41.308594 17.371094 41.800781 C 16.765625 42.289062 16.160156 42.777344 15.554688 43.261719 C 15.371094 43.410156 15.191406 43.554688 15.007812 43.703125 C 14.816406 43.859375 14.625 44.011719 14.433594 44.164062 C 14.191406 44.359375 13.953125 44.554688 13.714844 44.753906 C 12.195312 46.015625 12.195312 46.015625 11.140625 45.996094 C 10.371094 45.910156 9.917969 45.617188 9.402344 45.054688 C 9.144531 44.675781 8.933594 44.277344 8.722656 43.867188 C 8.601562 43.640625 8.480469 43.410156 8.355469 43.183594 C 8.296875 43.074219 8.238281 42.960938 8.179688 42.847656 C 7.960938 42.433594 7.730469 42.027344 7.5 41.621094 C 7.414062 41.472656 7.328125 41.320312 7.242188 41.167969 C 7.195312 41.089844 7.148438 41.007812 7.101562 40.921875 C 6.582031 40.003906 6.066406 39.085938 5.550781 38.167969 C 5.316406 37.746094 5.078125 37.324219 4.839844 36.902344 C 4.726562 36.695312 4.609375 36.484375 4.492188 36.277344 C 4.4375 36.183594 4.382812 36.085938 4.328125 35.988281 C 4.28125 35.902344 4.230469 35.816406 4.179688 35.726562 C 4.140625 35.648438 4.097656 35.574219 4.054688 35.496094 C 3.71875 34.804688 3.742188 33.941406 3.910156 33.210938 C 4.160156 32.519531 4.652344 31.734375 5.339844 31.398438 C 5.589844 31.386719 5.839844 31.382812 6.09375 31.378906 C 6.167969 31.378906 6.246094 31.375 6.328125 31.375 C 6.582031 31.375 6.839844 31.371094 7.097656 31.371094 C 7.183594 31.371094 7.273438 31.367188 7.363281 31.367188 C 7.824219 31.367188 8.289062 31.363281 8.753906 31.363281 C 9.234375 31.359375 9.710938 31.355469 10.191406 31.351562 C 10.558594 31.347656 10.925781 31.34375 11.296875 31.34375 C 11.472656 31.34375 11.648438 31.34375 11.824219 31.339844 C 12.074219 31.335938 12.320312 31.335938 12.566406 31.335938 C 12.707031 31.335938 12.847656 31.335938 12.992188 31.335938 C 13.453125 31.414062 13.605469 31.574219 13.894531 31.925781 C 14.03125 32.195312 14.019531 32.398438 14.027344 32.699219 C 14.035156 32.867188 14.035156 32.867188 14.039062 33.039062 C 14.046875 33.277344 14.050781 33.511719 14.058594 33.75 C 14.0625 33.863281 14.066406 33.976562 14.066406 34.089844 C 14.074219 34.246094 14.074219 34.246094 14.078125 34.402344 C 14.085938 34.675781 14.085938 34.675781 14.324219 34.867188 C 14.75 34.832031 15 34.691406 15.328125 34.433594 C 15.417969 34.367188 15.507812 34.296875 15.601562 34.226562 C 15.695312 34.15625 15.789062 34.082031 15.886719 34.003906 C 16.089844 33.851562 16.292969 33.695312 16.496094 33.542969 C 16.597656 33.464844 16.699219 33.386719 16.804688 33.304688 C 17.242188 32.972656 17.6875 32.652344 18.132812 32.332031 C 18.214844 32.273438 18.296875 32.214844 18.378906 32.152344 C 18.820312 31.835938 19.257812 31.519531 19.699219 31.207031 C 19.792969 31.136719 19.882812 31.070312 19.980469 31.003906 C 20.15625 30.875 20.332031 30.75 20.511719 30.625 C 21.265625 30.125 21.265625 30.125 21.6875 29.375 C 21.550781 28.796875 21.195312 28.605469 20.710938 28.269531 C 20.503906 28.128906 20.300781 27.984375 20.097656 27.835938 C 19.773438 27.605469 19.445312 27.375 19.121094 27.144531 C 18.601562 26.777344 18.085938 26.40625 17.570312 26.035156 C 17.488281 25.972656 17.402344 25.914062 17.316406 25.851562 C 16.902344 25.550781 16.488281 25.246094 16.074219 24.9375 C 15.996094 24.878906 15.917969 24.820312 15.839844 24.757812 C 15.691406 24.648438 15.546875 24.539062 15.398438 24.425781 C 14.957031 24.09375 14.957031 24.09375 14.429688 23.941406 C 14.324219 23.976562 14.21875 24.007812 14.109375 24.046875 C 14.105469 24.117188 14.105469 24.191406 14.105469 24.265625 C 14.097656 24.601562 14.085938 24.933594 14.074219 25.265625 C 14.070312 25.4375 14.070312 25.4375 14.066406 25.613281 C 14.03125 26.761719 14.03125 26.761719 13.679688 27.195312 C 13.140625 27.46875 12.746094 27.550781 12.132812 27.546875 C 12.054688 27.546875 11.980469 27.546875 11.898438 27.546875 C 11.652344 27.546875 11.402344 27.546875 11.152344 27.542969 C 10.976562 27.542969 10.804688 27.542969 10.628906 27.542969 C 10.175781 27.539062 9.71875 27.535156 9.261719 27.535156 C 8.796875 27.53125 8.332031 27.527344 7.863281 27.527344 C 6.953125 27.523438 6.039062 27.519531 5.125 27.511719 C 4.992188 27.28125 4.855469 27.046875 4.71875 26.816406 C 4.683594 26.75 4.644531 26.6875 4.605469 26.621094 C 4.253906 26.015625 3.925781 25.398438 3.601562 24.78125 C 3.160156 23.933594 2.707031 23.09375 2.238281 22.257812 C 1.765625 21.410156 1.296875 20.554688 0.835938 19.699219 C 0.777344 19.589844 0.714844 19.480469 0.65625 19.367188 C 0.136719 18.398438 -0.148438 17.578125 0.101562 16.480469 C 0.445312 15.503906 0.996094 14.902344 1.8125 14.273438 C 1.925781 14.1875 2.039062 14.097656 2.152344 14.007812 C 2.402344 13.8125 2.652344 13.621094 2.90625 13.429688 C 3.324219 13.109375 3.734375 12.78125 4.144531 12.449219 C 4.726562 11.980469 5.320312 11.523438 5.921875 11.078125 C 6.628906 10.550781 7.316406 10.007812 7.996094 9.453125 C 8.519531 9.023438 9.054688 8.605469 9.59375 8.195312 C 10.070312 7.828125 10.539062 7.453125 11.007812 7.078125 C 11.597656 6.605469 12.195312 6.136719 12.792969 5.675781 C 13.273438 5.308594 13.746094 4.933594 14.214844 4.558594 C 14.804688 4.082031 15.402344 3.617188 16.003906 3.15625 C 16.410156 2.84375 16.8125 2.527344 17.210938 2.207031 C 17.5 1.976562 17.785156 1.746094 18.074219 1.515625 C 18.207031 1.410156 18.339844 1.304688 18.472656 1.195312 C 19.605469 0.273438 20.828125 -0.507812 22.234375 0.40625 Z M 22.234375 0.40625 "/>
</g>
</svg>
