<?xml version="1.0" encoding="UTF-8"?>
<svg xmlns="http://www.w3.org/2000/svg" xmlns:xlink="http://www.w3.org/1999/xlink" width="32px" height="32px" viewBox="0 0 32 32" version="1.1">
<g id="surface1">
<path style=" stroke:none;fill-rule:nonzero;fill:rgb(3.137255%,71.372551%,82.352942%);fill-opacity:1;" d="M 18.878906 5.375 C 19.273438 5.722656 19.5 6.175781 19.726562 6.640625 C 19.832031 6.847656 19.9375 7.050781 20.039062 7.257812 C 20.0625 7.296875 20.082031 7.339844 20.101562 7.382812 C 20.328125 7.828125 20.566406 8.265625 20.808594 8.699219 C 21.507812 9.96875 21.507812 9.96875 21.34375 10.78125 C 21.300781 10.921875 21.300781 10.921875 21.183594 11.136719 C 20.980469 11.195312 20.777344 11.210938 20.5625 11.21875 C 20.503906 11.222656 20.445312 11.222656 20.386719 11.226562 C 20.324219 11.230469 20.261719 11.230469 20.199219 11.234375 C 20.101562 11.238281 20.101562 11.238281 20.003906 11.242188 C 19.867188 11.25 19.730469 11.253906 19.59375 11.257812 C 19.386719 11.269531 19.179688 11.277344 18.972656 11.285156 C 18.839844 11.292969 18.703125 11.296875 18.570312 11.300781 C 18.511719 11.304688 18.449219 11.308594 18.386719 11.308594 C 18.082031 11.324219 17.777344 11.332031 17.472656 11.335938 C 17.386719 11.335938 17.386719 11.335938 17.300781 11.335938 C 17.09375 11.324219 16.984375 11.273438 16.832031 11.136719 C 16.636719 10.871094 16.605469 10.636719 16.597656 10.316406 C 16.59375 10.273438 16.589844 10.226562 16.589844 10.179688 C 16.585938 10.074219 16.578125 9.964844 16.574219 9.855469 C 16.25 9.8125 16.09375 9.894531 15.847656 10.085938 C 15.804688 10.121094 15.761719 10.152344 15.71875 10.1875 C 15.675781 10.222656 15.632812 10.257812 15.585938 10.292969 C 15.445312 10.402344 15.308594 10.511719 15.167969 10.625 C 15.121094 10.660156 15.078125 10.695312 15.03125 10.734375 C 14.773438 10.941406 14.515625 11.152344 14.257812 11.363281 C 14.046875 11.535156 13.832031 11.703125 13.621094 11.871094 C 13.5 11.96875 13.5 11.96875 13.375 12.097656 C 13.378906 12.363281 13.394531 12.496094 13.585938 12.6875 C 13.683594 12.75 13.683594 12.75 13.785156 12.8125 C 13.820312 12.835938 13.855469 12.859375 13.890625 12.882812 C 14.003906 12.957031 14.121094 13.027344 14.234375 13.101562 C 14.316406 13.152344 14.394531 13.199219 14.472656 13.25 C 14.628906 13.351562 14.789062 13.453125 14.945312 13.554688 C 15.144531 13.679688 15.335938 13.808594 15.527344 13.941406 C 15.578125 13.976562 15.632812 14.011719 15.6875 14.050781 C 15.78125 14.117188 15.875 14.183594 15.96875 14.25 C 16.199219 14.40625 16.351562 14.507812 16.640625 14.464844 C 16.75 14.226562 16.777344 14.054688 16.765625 13.792969 C 16.757812 13.511719 16.769531 13.339844 16.960938 13.121094 C 17.15625 12.945312 17.292969 12.902344 17.554688 12.886719 C 17.625 12.882812 17.691406 12.878906 17.761719 12.875 C 17.835938 12.871094 17.910156 12.867188 17.984375 12.863281 C 18.0625 12.859375 18.136719 12.855469 18.214844 12.847656 C 18.460938 12.835938 18.707031 12.824219 18.953125 12.8125 C 19.035156 12.808594 19.117188 12.800781 19.203125 12.796875 C 19.746094 12.773438 20.222656 12.789062 20.65625 13.148438 C 20.941406 13.453125 21.125 13.839844 21.316406 14.207031 C 21.390625 14.34375 21.460938 14.480469 21.535156 14.617188 C 21.570312 14.6875 21.609375 14.757812 21.648438 14.832031 C 21.828125 15.164062 22.015625 15.496094 22.203125 15.824219 C 23.214844 17.597656 23.214844 17.597656 22.992188 18.503906 C 22.734375 19.203125 22.203125 19.628906 21.628906 20.078125 C 21.390625 20.261719 21.15625 20.457031 20.925781 20.648438 C 20.878906 20.6875 20.832031 20.726562 20.78125 20.765625 C 20.6875 20.84375 20.589844 20.921875 20.496094 21 C 20.265625 21.191406 20.039062 21.378906 19.808594 21.566406 C 19.53125 21.796875 19.253906 22.023438 18.976562 22.25 C 18.539062 22.613281 18.097656 22.976562 17.660156 23.335938 C 17.421875 23.527344 17.1875 23.722656 16.953125 23.914062 C 16.90625 23.953125 16.859375 23.992188 16.8125 24.03125 C 16.574219 24.226562 16.335938 24.425781 16.097656 24.621094 C 14.488281 25.960938 14.488281 25.960938 13.832031 25.941406 C 13.402344 25.878906 13.109375 25.6875 12.835938 25.359375 C 12.632812 25.074219 12.476562 24.757812 12.316406 24.449219 C 12.238281 24.300781 12.160156 24.152344 12.078125 24.003906 C 12.058594 23.964844 12.039062 23.925781 12.019531 23.886719 C 11.785156 23.445312 11.535156 23.011719 11.285156 22.574219 C 10.464844 21.136719 10.464844 21.136719 10.671875 20.289062 C 10.902344 19.605469 10.902344 19.605469 11.199219 19.390625 C 11.457031 19.335938 11.710938 19.339844 11.976562 19.34375 C 12.050781 19.34375 12.128906 19.34375 12.203125 19.34375 C 12.363281 19.34375 12.523438 19.347656 12.683594 19.347656 C 12.925781 19.351562 13.171875 19.351562 13.414062 19.351562 C 13.570312 19.351562 13.726562 19.351562 13.878906 19.351562 C 13.953125 19.351562 14.027344 19.351562 14.101562 19.351562 C 14.605469 19.363281 14.605469 19.363281 14.859375 19.515625 C 15.101562 19.789062 15.121094 19.996094 15.140625 20.363281 C 15.128906 20.632812 15.128906 20.632812 15.230469 20.863281 C 15.660156 20.855469 15.886719 20.671875 16.207031 20.402344 C 16.308594 20.324219 16.410156 20.242188 16.511719 20.160156 C 16.5625 20.117188 16.617188 20.074219 16.671875 20.03125 C 16.9375 19.820312 17.214844 19.617188 17.492188 19.414062 C 17.675781 19.28125 17.863281 19.144531 18.046875 19.007812 C 18.109375 18.960938 18.171875 18.914062 18.238281 18.867188 C 18.386719 18.753906 18.386719 18.753906 18.441406 18.53125 C 18.457031 18.300781 18.457031 18.300781 18.304688 18.152344 C 18.082031 17.949219 17.835938 17.777344 17.59375 17.605469 C 17.488281 17.53125 17.386719 17.457031 17.285156 17.382812 C 17.230469 17.347656 17.179688 17.308594 17.125 17.269531 C 16.957031 17.148438 16.792969 17.027344 16.628906 16.90625 C 16.574219 16.863281 16.519531 16.824219 16.464844 16.78125 C 16.359375 16.707031 16.253906 16.628906 16.152344 16.550781 C 15.898438 16.359375 15.65625 16.179688 15.359375 16.0625 C 15.296875 16.085938 15.234375 16.105469 15.167969 16.128906 C 15.164062 16.1875 15.164062 16.25 15.160156 16.308594 C 15.15625 16.390625 15.152344 16.46875 15.148438 16.550781 C 15.144531 16.628906 15.140625 16.710938 15.136719 16.789062 C 15.09375 17.085938 15.019531 17.308594 14.800781 17.511719 C 14.621094 17.621094 14.507812 17.628906 14.304688 17.632812 C 14.234375 17.632812 14.164062 17.636719 14.089844 17.636719 C 14.015625 17.640625 13.9375 17.640625 13.859375 17.640625 C 13.78125 17.640625 13.703125 17.644531 13.625 17.644531 C 13.457031 17.648438 13.292969 17.648438 13.125 17.648438 C 12.875 17.652344 12.621094 17.660156 12.367188 17.664062 C 12.207031 17.667969 12.046875 17.667969 11.882812 17.667969 C 11.808594 17.671875 11.734375 17.675781 11.65625 17.675781 C 11.441406 17.675781 11.273438 17.667969 11.070312 17.601562 C 10.886719 17.410156 10.789062 17.203125 10.6875 16.960938 C 10.632812 16.855469 10.632812 16.855469 10.574219 16.75 C 10.542969 16.691406 10.511719 16.632812 10.480469 16.570312 C 10.445312 16.5 10.410156 16.429688 10.375 16.359375 C 10.339844 16.289062 10.300781 16.21875 10.265625 16.144531 C 9.941406 15.515625 9.609375 14.890625 9.261719 14.277344 C 8.945312 13.703125 8.796875 13.199219 8.96875 12.546875 C 9.164062 11.972656 9.511719 11.578125 9.984375 11.207031 C 10.03125 11.167969 10.078125 11.132812 10.128906 11.09375 C 10.273438 10.976562 10.414062 10.863281 10.558594 10.753906 C 10.636719 10.691406 10.714844 10.628906 10.792969 10.566406 C 10.902344 10.480469 11.011719 10.394531 11.121094 10.3125 C 11.40625 10.089844 11.6875 9.859375 11.96875 9.632812 C 12.320312 9.34375 12.679688 9.058594 13.039062 8.777344 C 13.324219 8.554688 13.605469 8.324219 13.886719 8.097656 C 14.242188 7.808594 14.597656 7.523438 14.957031 7.242188 C 15.195312 7.054688 15.433594 6.863281 15.667969 6.671875 C 16.078125 6.339844 16.488281 6.007812 16.902344 5.683594 C 16.949219 5.648438 16.992188 5.613281 17.039062 5.578125 C 17.59375 5.148438 18.25 5.011719 18.878906 5.375 Z M 18.878906 5.375 "/>
</g>
</svg>
