<svg xmlns="http://www.w3.org/2000/svg" xmlns:xlink="http://www.w3.org/1999/xlink" version="1.1" viewBox="150.23 46.68 448.59 656.8">
<g id="surface1">
<path style=" stroke:none;fill-rule:nonzero;fill:rgb(53%, 71%, 100%);fill-opacity:1;" d="M 462 52.5 C 470.488281 60.710938 475.835938 69.9375 481.03125 80.4375 C 482.601562 83.527344 484.171875 86.617188 485.75 89.707031 C 486.539062 91.261719 487.328125 92.820312 488.140625 94.421875 C 491.734375 101.394531 495.519531 108.257812 499.3125 115.125 C 507.96875 130.867188 516.234375 146.804688 524.46875 162.773438 C 527.644531 168.933594 530.851562 175.078125 534.109375 181.195312 C 535.160156 183.164062 535.160156 183.164062 536.230469 185.175781 C 537.515625 187.585938 538.804688 189.996094 540.101562 192.398438 C 540.949219 193.984375 540.949219 193.984375 541.8125 195.601562 C 542.296875 196.507812 542.785156 197.414062 543.285156 198.34375 C 548.53125 209.8125 546.855469 223.007812 542.632812 234.480469 C 541.5 237 541.5 237 540 238.5 C 537.109375 238.773438 534.210938 238.949219 531.3125 239.082031 C 529.449219 239.171875 527.582031 239.261719 525.660156 239.355469 C 523.59375 239.449219 521.527344 239.539062 519.460938 239.632812 C 517.332031 239.730469 515.199219 239.828125 513.070312 239.925781 C 508.570312 240.132812 504.066406 240.335938 499.566406 240.535156 C 495.019531 240.738281 490.476562 240.945312 485.929688 241.160156 C 464.046875 242.195312 442.148438 243.183594 420.242188 243.507812 C 418.785156 243.550781 417.328125 243.59375 415.832031 243.636719 C 409.394531 243.675781 405.972656 243.601562 400.390625 240.15625 C 395.914062 235.269531 395.707031 232.0625 395.25 225.554688 C 395.125 223.882812 395.003906 222.207031 394.875 220.480469 C 394.625 216.925781 394.375 213.371094 394.125 209.816406 C 394 208.140625 393.878906 206.46875 393.75 204.746094 C 393.640625 203.199219 393.535156 201.65625 393.421875 200.066406 C 393.382812 196.570312 393.382812 196.570312 391.5 195 C 381.800781 195.246094 377.0625 198.863281 369.9375 205.125 C 367.820312 206.917969 365.699219 208.707031 363.574219 210.492188 C 361.949219 211.867188 361.949219 211.867188 360.289062 213.273438 C 355.070312 217.601562 349.664062 221.671875 344.25 225.75 C 332.667969 234.523438 321.386719 243.628906 310.148438 252.839844 C 305.164062 256.90625 300.121094 260.910156 295.085938 264.914062 C 291.164062 267.980469 291.164062 267.980469 289.96875 273.1875 C 290.371094 278.910156 290.371094 278.910156 293.585938 281.339844 C 294.761719 282.113281 295.933594 282.886719 297.148438 283.679688 C 298.511719 284.59375 299.878906 285.503906 301.289062 286.441406 C 302.84375 287.449219 304.398438 288.460938 306 289.5 C 307.71875 290.636719 309.4375 291.773438 311.152344 292.910156 C 318.03125 297.460938 324.941406 301.964844 331.847656 306.46875 C 342.929688 313.695312 353.988281 320.941406 364.882812 328.445312 C 366.539062 329.582031 368.195312 330.714844 369.851562 331.847656 C 372.90625 333.945312 375.949219 336.0625 378.976562 338.195312 C 380.332031 339.125 381.683594 340.050781 383.078125 341.003906 C 384.242188 341.816406 385.40625 342.628906 386.605469 343.46875 C 390.882812 345.398438 393.09375 344.914062 397.5 343.5 C 399.402344 341.9375 399.402344 341.9375 399.121094 338.484375 C 399.097656 336.957031 399.070312 335.433594 399.039062 333.859375 C 399.023438 332.203125 399.003906 330.542969 398.984375 328.832031 C 398.933594 325.316406 398.875 321.800781 398.808594 318.285156 C 398.792969 316.617188 398.777344 314.953125 398.757812 313.238281 C 398.722656 310.941406 398.722656 310.941406 398.683594 308.601562 C 399.019531 304.257812 399.476562 302.03125 402 298.5 C 407.835938 293.949219 412.6875 293.324219 419.976562 292.957031 C 420.996094 292.902344 422.019531 292.84375 423.070312 292.785156 C 426.421875 292.605469 429.773438 292.457031 433.125 292.3125 C 435.457031 292.199219 437.792969 292.085938 440.125 291.972656 C 444.96875 291.738281 449.8125 291.523438 454.65625 291.320312 C 460.683594 291.0625 466.703125 290.761719 472.726562 290.449219 C 477.257812 290.222656 481.785156 290.019531 486.316406 289.832031 C 488.46875 289.734375 490.621094 289.632812 492.773438 289.515625 C 495.777344 289.359375 498.78125 289.246094 501.785156 289.136719 C 503.484375 289.0625 505.1875 288.988281 506.9375 288.910156 C 512.742188 289.660156 514.917969 291.351562 519 295.5 C 521.746094 299.601562 521.746094 299.601562 524.296875 304.335938 C 524.765625 305.195312 525.234375 306.054688 525.71875 306.9375 C 527.242188 309.742188 528.746094 312.558594 530.25 315.375 C 531.316406 317.34375 532.382812 319.3125 533.453125 321.277344 C 536.148438 326.246094 538.824219 331.21875 541.496094 336.199219 C 544.539062 341.863281 547.597656 347.515625 550.65625 353.171875 C 552.238281 356.097656 553.820312 359.027344 555.398438 361.957031 C 561.015625 372.347656 566.785156 382.640625 572.625 392.90625 C 578.433594 403.140625 584.210938 413.382812 589.78125 423.75 C 590.324219 424.746094 590.867188 425.742188 591.429688 426.765625 C 597.722656 438.609375 600.761719 449.988281 597.46875 463.105469 C 589.644531 486.675781 569.785156 499.582031 550.953125 514.207031 C 543.730469 519.84375 536.792969 525.773438 529.875 531.777344 C 523.886719 536.953125 517.757812 541.902344 511.5 546.75 C 503.265625 553.128906 495.320312 559.785156 487.441406 566.601562 C 481.480469 571.753906 475.414062 576.734375 469.230469 581.617188 C 463.554688 586.15625 457.949219 590.78125 452.34375 595.40625 C 451.234375 596.320312 450.125 597.234375 448.984375 598.179688 C 446.8125 599.96875 444.640625 601.761719 442.46875 603.550781 C 434.742188 609.921875 426.980469 616.246094 419.226562 622.582031 C 410.71875 629.535156 402.230469 636.511719 393.75 643.5 C 385.273438 650.484375 376.789062 657.457031 368.285156 664.40625 C 365.726562 666.496094 363.171875 668.589844 360.621094 670.6875 C 357.929688 672.898438 355.234375 675.097656 352.53125 677.289062 C 349.148438 680.058594 345.8125 682.859375 342.488281 685.691406 C 321.132812 703.679688 321.132812 703.679688 306.339844 703.429688 C 295.558594 702.1875 289.230469 698.003906 282 690 C 278.355469 684.5625 275.390625 678.867188 272.4375 673.03125 C 270.734375 669.777344 269.027344 666.523438 267.320312 663.269531 C 266.5 661.679688 265.675781 660.089844 264.824219 658.453125 C 261.75 652.5625 258.535156 646.761719 255.28125 640.96875 C 254.078125 638.816406 252.878906 636.660156 251.679688 634.503906 C 251.03125 633.34375 250.382812 632.183594 249.714844 630.984375 C 242.433594 617.886719 235.203125 604.753906 227.976562 591.625 C 224.660156 585.605469 221.335938 579.589844 218.007812 573.578125 C 216.371094 570.605469 214.730469 567.632812 213.09375 564.65625 C 212.339844 563.300781 211.589844 561.945312 210.8125 560.550781 C 210.128906 559.304688 209.445312 558.058594 208.742188 556.773438 C 208.148438 555.699219 207.554688 554.625 206.941406 553.519531 C 202.234375 543.65625 202.59375 531.332031 204.917969 520.863281 C 208.429688 511 215.371094 499.816406 225 495 C 228.511719 494.824219 232.03125 494.746094 235.546875 494.710938 C 236.632812 494.699219 237.71875 494.6875 238.839844 494.671875 C 242.4375 494.636719 246.039062 494.613281 249.640625 494.589844 C 250.867188 494.582031 252.097656 494.574219 253.363281 494.566406 C 259.867188 494.527344 266.375 494.496094 272.878906 494.476562 C 279.597656 494.449219 286.316406 494.382812 293.035156 494.304688 C 298.203125 494.253906 303.367188 494.238281 308.535156 494.230469 C 311.011719 494.21875 313.488281 494.195312 315.964844 494.160156 C 319.433594 494.113281 322.898438 494.113281 326.367188 494.125 C 328.34375 494.113281 330.316406 494.101562 332.347656 494.089844 C 338.785156 495.226562 340.945312 497.496094 345 502.5 C 346.925781 506.347656 346.765625 509.257812 346.867188 513.5625 C 346.941406 515.964844 346.941406 515.964844 347.019531 518.414062 C 347.109375 521.804688 347.195312 525.195312 347.277344 528.585938 C 347.328125 530.1875 347.378906 531.789062 347.429688 533.4375 C 347.488281 535.648438 347.488281 535.648438 347.546875 537.902344 C 347.660156 541.773438 347.660156 541.773438 351 544.5 C 356.972656 544.039062 360.476562 541.992188 365.121094 538.339844 C 366.371094 537.371094 367.621094 536.402344 368.910156 535.402344 C 370.238281 534.351562 371.566406 533.300781 372.9375 532.21875 C 375.78125 530.011719 378.625 527.808594 381.46875 525.601562 C 382.898438 524.492188 384.332031 523.378906 385.804688 522.234375 C 391.945312 517.5 398.183594 512.894531 404.4375 508.3125 C 405.582031 507.46875 406.730469 506.628906 407.910156 505.761719 C 414.066406 501.238281 420.234375 496.734375 426.40625 492.234375 C 427.703125 491.285156 429 490.335938 430.335938 489.359375 C 432.816406 487.542969 435.300781 485.730469 437.789062 483.925781 C 448.363281 476.804688 448.363281 476.804688 454.3125 466.125 C 452.378906 457.839844 447.417969 455.089844 440.625 450.339844 C 437.722656 448.304688 434.859375 446.226562 431.992188 444.140625 C 427.433594 440.824219 422.863281 437.527344 418.28125 434.242188 C 411.003906 429.015625 403.777344 423.722656 396.5625 418.40625 C 395.386719 417.542969 394.210938 416.675781 393 415.785156 C 387.15625 411.476562 381.347656 407.136719 375.578125 402.726562 C 374.484375 401.894531 373.390625 401.058594 372.265625 400.203125 C 370.207031 398.628906 368.15625 397.050781 366.109375 395.464844 C 359.871094 390.699219 359.871094 390.699219 352.5 388.5 C 351.015625 388.996094 349.53125 389.488281 348 390 C 347.976562 391.042969 347.957031 392.085938 347.933594 393.160156 C 347.820312 397.921875 347.675781 402.679688 347.53125 407.4375 C 347.480469 409.898438 347.480469 409.898438 347.429688 412.414062 C 346.882812 428.777344 346.882812 428.777344 342 435 C 334.4375 438.910156 328.886719 440.054688 320.257812 440.011719 C 319.1875 440.011719 318.117188 440.011719 317.015625 440.011719 C 313.515625 440.007812 310.019531 439.976562 306.523438 439.9375 C 304.082031 439.929688 301.640625 439.925781 299.203125 439.921875 C 292.808594 439.902344 286.414062 439.859375 280.019531 439.808594 C 273.484375 439.761719 266.945312 439.742188 260.410156 439.71875 C 247.605469 439.671875 234.804688 439.59375 222 439.5 C 220.097656 436.191406 218.199219 432.878906 216.300781 429.570312 C 215.769531 428.644531 215.234375 427.71875 214.6875 426.765625 C 209.746094 418.136719 205.152344 409.347656 200.625 400.5 C 194.394531 388.417969 188.054688 376.410156 181.5 364.5 C 174.84375 352.359375 168.273438 340.183594 161.8125 327.9375 C 160.976562 326.378906 160.140625 324.816406 159.28125 323.210938 C 152.035156 309.378906 148.015625 297.65625 151.5 282 C 156.332031 268.054688 164.058594 259.476562 175.5 250.5 C 177.097656 249.230469 178.695312 247.957031 180.292969 246.6875 C 183.800781 243.910156 187.324219 241.160156 190.859375 238.417969 C 196.722656 233.851562 202.46875 229.148438 208.21875 224.4375 C 216.410156 217.738281 224.71875 211.230469 233.15625 204.84375 C 243.058594 197.34375 252.695312 189.574219 262.25 181.636719 C 269.621094 175.523438 277.089844 169.554688 284.644531 163.667969 C 291.332031 158.445312 297.925781 153.117188 304.5 147.75 C 312.785156 140.988281 321.136719 134.328125 329.566406 127.746094 C 336.277344 122.492188 342.898438 117.136719 349.5 111.75 C 357.785156 104.988281 366.132812 98.328125 374.5625 91.75 C 380.269531 87.285156 385.910156 82.75 391.519531 78.167969 C 395.546875 74.878906 399.585938 71.609375 403.625 68.339844 C 405.496094 66.816406 407.359375 65.289062 409.214844 63.75 C 425.101562 50.59375 442.222656 39.457031 462 52.5 Z M 462 52.5 "/>
</g>
</svg>